<svg xmlns="http://www.w3.org/2000/svg" viewBox="0 0 792.9 220.2" xml:space="preserve" style="height:24px"><path d="M179.8 69.2c0-39.4-38.8-63.6-74.9-63.6H0v208.7h62.8V113.4l48.4 99.2.8 1.5h71.3l-49.8-87.8c28.7-8.1 46.3-29.8 46.3-57.1zm-117-33.4h18.4c20 0 34 14.2 34 34.4 0 29.2-16.7 35-45.7 35h-6.9V35.8h.2zM717 181.1v-57.3h68.4V90.5H717V39h72V5.6H654.3v208.7h138.6v-33.2zM525.4 5.6H433v208.7h101.9c62.5 0 102.8-39.4 102.8-100.5-.3-62.7-47.4-108.2-112.3-108.2zm47.2 99.9c0 38.8-15.4 80.1-58.8 80.1h-20.9V34.2h18.8c42.1 0 60.9 35.8 60.9 71.3zM410.8 19.6 393.3 2.1l-21.5 21.5C353 8.9 328.8 0 302.3 0 240 0 191.4 48.3 191.4 110c0 26.7 9.2 50.9 24.6 69.8l-21.1 21.1 17.5 17.5 21.3-21.3c18.8 14.4 42.5 23.1 68.6 23.1 62.3 0 110.9-48.2 110.9-109.9 0-26.3-8.8-50.2-23.8-68.8l21.4-21.9zm-108.4 7.7c19.4 0 30.7 12.7 37.3 28.6l-81.5 81.5c-1.5-10.4-1.9-20.4-1.9-27.5 0-24.7 4.6-82.6 46.1-82.6zm44.2 56.5c1.3 10 1.7 19.2 1.7 26.1 0 24.8-4.4 82.6-46.1 82.6-19 0-30.2-12.1-36.9-27.7l81.3-81z"/></svg>